# xmcd CD database file
#
# Track frame offsets:
#	150
#	37356
#	74477
#	97685
#	149866
#	173599
#	196955
#	225078
#
# Disc length: 3594 seconds
#
# Revision: 0
# Processed by: cddbd v1.5.1PL2 Copyright (c) Steve Scherf et al.
# Submitted via: CDex 1.51
#
DISCID=6b0e0808
DTITLE=Coalition - Point of View
DYEAR=1900
DGENRE=Jazz
TTITLE0=Erghen Diado
TTITLE1=Come With Me
TTITLE2=Catharsis
TTITLE3=Miles
TTITLE4=Aroha
TTITLE5=Third Street Promenade
TTITLE6=Amazonia
TTITLE7=Point of View
EXTD=
EXTT0=
EXTT1=
EXTT2=
EXTT3=
EXTT4=
EXTT5=
EXTT6=
EXTT7=
PLAYORDER=
